<?xml version="1.0" encoding="utf-8"?>
<!-- Generator: Adobe Illustrator 28.3.0, SVG Export Plug-In . SVG Version: 6.00 Build 0)  -->
<svg version="1.1" id="Layer_1" xmlns="http://www.w3.org/2000/svg" xmlns:xlink="http://www.w3.org/1999/xlink" x="0px" y="0px"
	 viewBox="0 0 200 200" style="enable-background:new 0 0 200 200;" xml:space="preserve">
<style type="text/css">
	.st0{fill-rule:evenodd;clip-rule:evenodd;fill:#176B5E;}
</style>
<path id="Medicare" class="st0" d="M36.1,89.5H40l4.8,14.5l4.9-14.5h3.8l3.5,20.8h-3.8l-2.2-13.2l-4.4,13.2H43l-4.4-13.2l-2.3,13.2
	h-3.9L36.1,89.5z M75.2,103.8H62.7c0.2,1.1,0.7,2,1.4,2.6c0.8,0.6,1.8,1,3,1c1.4,0,2.7-0.5,3.7-1.5l3.3,1.5c-0.8,1.2-1.8,2-2.9,2.6
	c-1.1,0.6-2.5,0.8-4,0.8c-2.4,0-4.4-0.8-5.9-2.3c-1.5-1.5-2.3-3.4-2.3-5.7c0-2.4,0.8-4.3,2.3-5.9c1.5-1.6,3.4-2.3,5.7-2.3
	c2.4,0,4.4,0.8,5.9,2.3c1.5,1.6,2.3,3.6,2.3,6.2L75.2,103.8z M71.3,100.7c-0.3-0.9-0.8-1.6-1.5-2.1c-0.8-0.5-1.6-0.8-2.6-0.8
	c-1.1,0-2,0.3-2.8,0.9c-0.5,0.4-1,1-1.4,2H71.3z M89.7,89h3.9v21.4h-3.9v-1.6c-0.8,0.7-1.5,1.2-2.3,1.6c-0.8,0.3-1.6,0.5-2.5,0.5
	c-2,0-3.7-0.8-5.2-2.3c-1.5-1.5-2.2-3.5-2.2-5.8c0-2.4,0.7-4.3,2.1-5.8c1.4-1.5,3.1-2.3,5.1-2.3c0.9,0,1.8,0.2,2.6,0.5
	c0.8,0.3,1.6,0.9,2.3,1.6V89z M85.6,98.1c-1.2,0-2.2,0.4-3,1.3c-0.8,0.8-1.2,1.9-1.2,3.2c0,1.3,0.4,2.4,1.2,3.3
	c0.8,0.9,1.8,1.3,3,1.3c1.2,0,2.2-0.4,3-1.3s1.2-2,1.2-3.3c0-1.3-0.4-2.4-1.2-3.3C87.9,98.6,86.8,98.1,85.6,98.1z M99,88.6
	c0.7,0,1.3,0.2,1.7,0.7c0.5,0.5,0.7,1.1,0.7,1.8c0,0.7-0.2,1.3-0.7,1.8s-1.1,0.7-1.7,0.7c-0.7,0-1.3-0.2-1.8-0.7
	c-0.5-0.5-0.7-1.1-0.7-1.8c0-0.7,0.2-1.3,0.7-1.7C97.7,88.9,98.3,88.6,99,88.6z M97,95h3.9v15.4H97V95z M119.5,98.1l-3.2,1.8
	c-0.6-0.6-1.2-1.1-1.8-1.3c-0.6-0.2-1.3-0.4-2.1-0.4c-1.4,0-2.6,0.4-3.5,1.3c-0.9,0.9-1.3,2-1.3,3.3c0,1.3,0.4,2.4,1.3,3.2
	c0.9,0.8,2,1.2,3.4,1.2c1.7,0,3.1-0.6,4-1.8l3,2.1c-1.7,2.1-4,3.2-7,3.2c-2.7,0-4.8-0.8-6.4-2.4c-1.5-1.6-2.3-3.5-2.3-5.6
	c0-1.5,0.4-2.9,1.1-4.1c0.7-1.3,1.8-2.2,3.1-3c1.3-0.7,2.8-1.1,4.5-1.1c1.5,0,2.9,0.3,4.1,0.9C117.7,96.1,118.7,97,119.5,98.1z
	 M134.3,95h3.9v15.4h-3.9v-1.6c-0.8,0.7-1.5,1.2-2.3,1.6c-0.8,0.3-1.6,0.5-2.5,0.5c-2,0-3.7-0.8-5.2-2.3s-2.2-3.5-2.2-5.8
	c0-2.4,0.7-4.3,2.1-5.8c1.4-1.5,3.1-2.3,5.1-2.3c0.9,0,1.8,0.2,2.6,0.5c0.8,0.3,1.6,0.9,2.3,1.6V95z M130.3,98.1
	c-1.2,0-2.2,0.4-3,1.3c-0.8,0.8-1.2,1.9-1.2,3.2c0,1.3,0.4,2.4,1.2,3.3s1.8,1.3,3,1.3c1.2,0,2.2-0.4,3-1.3s1.2-2,1.2-3.3
	c0-1.3-0.4-2.4-1.2-3.3C132.5,98.6,131.5,98.1,130.3,98.1z M141.2,95h3.3v1.9c0.4-0.8,0.8-1.3,1.4-1.7c0.6-0.4,1.2-0.6,2-0.6
	c0.5,0,1,0.1,1.6,0.4l-1.2,3.3c-0.5-0.2-0.8-0.3-1.1-0.3c-0.6,0-1.1,0.4-1.5,1.1c-0.4,0.7-0.6,2.2-0.6,4.3l0,0.8v6.2h-3.8V95z
	 M166.8,103.8h-12.4c0.2,1.1,0.7,2,1.4,2.6c0.8,0.6,1.8,1,3,1c1.4,0,2.7-0.5,3.7-1.5l3.3,1.5c-0.8,1.2-1.8,2-2.9,2.6
	c-1.1,0.6-2.5,0.8-4,0.8c-2.4,0-4.4-0.8-5.9-2.3c-1.5-1.5-2.3-3.4-2.3-5.7c0-2.4,0.8-4.3,2.3-5.9c1.5-1.6,3.4-2.3,5.7-2.3
	c2.4,0,4.4,0.8,5.9,2.3c1.5,1.6,2.3,3.6,2.3,6.2L166.8,103.8z M162.9,100.7c-0.3-0.9-0.8-1.6-1.5-2.1c-0.8-0.5-1.6-0.8-2.6-0.8
	c-1.1,0-2,0.3-2.8,0.9c-0.5,0.4-1,1-1.4,2H162.9z"/>
</svg>
